# xmcd
#
# Track frame offsets:
#	150
#	15194
#	31711
#	49894
#	64329
#
# Disc length: 1056 seconds
#
# Revision: 0
# Processed by: cddbd v1.5.2PL0 Copyright (c) Steve Scherf et al.
# Submitted via: EasyCDDAExtractor 11.0.0.1
#
DISCID=33041e05
DTITLE=ΧΑΤΖΗΣΑΒΒΑΣ ΜΑΡΙΟΣ
DYEAR=2000
DGENRE=ΛΑΪΚΑ
TTITLE0=Χατζησάββας Μάριος_01 Τι με πιάνει
TTITLE1=Χατζησάββας Μάριος_02 Φεγγάρι μου
TTITLE2=Χατζησάββας Μάριος_03 Το έργο τό 'χω ξαναδεί
TTITLE3=Χατζησάββας Μάριος_04 Πώς τρομάζω
TTITLE4=Χατζησάββας Μάριος_05 Γυναίκα είσαι ή Θάνατος
EXTD=
EXTT0=
EXTT1=
EXTT2=
EXTT3=
EXTT4=
PLAYORDER=
